<svg width="14" height="12" viewBox="0 0 14 12" fill="none" xmlns="http://www.w3.org/2000/svg">
<path d="M7 4C5.61929 4 4.5 5.11929 4.5 6.5C4.5 7.88071 5.61929 9 7 9C8.38071 9 9.5 7.88071 9.5 6.5C9.5 5.11929 8.38071 4 7 4Z" fill="#515151"/>
<path fill-rule="evenodd" clip-rule="evenodd" d="M5.22952 0.0474177C5.81574 0.015939 6.40603 0 7 0C7.59397 0 8.18426 0.015939 8.77048 0.0474177C9.41555 0.0820573 9.99027 0.437413 10.3255 0.974562L10.8729 1.8519C11.0323 2.10733 11.303 2.28088 11.613 2.32494C11.8699 2.36145 12.1259 2.40097 12.3809 2.44345C13.3354 2.60252 14 3.43857 14 4.38268V10C14 11.1046 13.1046 12 12 12H2C0.89543 12 0 11.1046 0 10V4.38268C0 3.43856 0.664572 2.60251 1.61914 2.44345C1.8741 2.40096 2.13006 2.36145 2.38699 2.32493C2.69704 2.28087 2.96768 2.10732 3.12707 1.8519L3.67454 0.974561C4.00973 0.437412 4.58445 0.0820573 5.22952 0.0474177ZM3.5 6.5C3.5 4.567 5.067 3 7 3C8.933 3 10.5 4.567 10.5 6.5C10.5 8.433 8.933 10 7 10C5.067 10 3.5 8.433 3.5 6.5ZM11.5 5.5C11.7761 5.5 12 5.27614 12 5C12 4.72386 11.7761 4.5 11.5 4.5C11.2239 4.5 11 4.72386 11 5C11 5.27614 11.2239 5.5 11.5 5.5Z" fill="#515151"/>
</svg>
