<svg width="14" height="14" viewBox="0 0 14 14" fill="none" xmlns="http://www.w3.org/2000/svg">
<path fill-rule="evenodd" clip-rule="evenodd" d="M11.6464 1.43934C11.0606 0.853553 10.1109 0.853553 9.52507 1.43934L2.23223 8.73223C1.25592 9.70854 1.25592 11.2915 2.23223 12.2678C3.20854 13.2441 4.79146 13.2441 5.76777 12.2678L10.8964 7.1391C11.0917 6.94384 11.4083 6.94384 11.6035 7.1391C11.7988 7.33436 11.7988 7.65095 11.6035 7.84621L6.47487 12.9749C5.10804 14.3417 2.89196 14.3417 1.52513 12.9749C0.158291 11.608 0.158291 9.39196 1.52513 8.02512L8.81796 0.732233C9.79428 -0.244077 11.3772 -0.244078 12.3535 0.732233C13.3298 1.70854 13.3298 3.29146 12.3535 4.26777L5.0649 11.5564C5.06301 11.5583 5.06111 11.5602 5.05919 11.5621L5.05461 11.5667L5.05314 11.5681L5.05164 11.5696C4.4651 12.1464 3.52213 12.1434 2.93934 11.5607C2.35355 10.9749 2.35355 10.0251 2.93934 9.43934L8.14633 4.23222C8.34159 4.03695 8.65818 4.03695 8.85344 4.23221C9.04871 4.42747 9.04871 4.74405 8.85345 4.93932L3.64645 10.1464C3.45119 10.3417 3.45119 10.6583 3.64645 10.8535C3.84028 11.0474 4.15371 11.0488 4.34922 10.8578L11.6464 3.56066C12.2322 2.97487 12.2322 2.02513 11.6464 1.43934Z" fill="#515151"/>
</svg>
