<svg width="19" height="18" viewBox="0 0 19 18" fill="none" xmlns="http://www.w3.org/2000/svg">
<path fill-rule="evenodd" clip-rule="evenodd" d="M7 2.75C7.27905 2.75 7.52429 2.93499 7.60095 3.2033L8.27862 5.57512C8.57523 6.61327 9.38673 7.42477 10.4249 7.72138L12.7967 8.39905C13.065 8.47571 13.25 8.72095 13.25 9C13.25 9.27905 13.065 9.52429 12.7967 9.60095L10.4249 10.2786C9.38673 10.5752 8.57523 11.3867 8.27862 12.4249L7.60095 14.7967C7.52429 15.065 7.27905 15.25 7 15.25C6.72095 15.25 6.47571 15.065 6.39905 14.7967L5.72138 12.4249C5.42477 11.3867 4.61327 10.5752 3.57512 10.2786L1.2033 9.60095C0.934986 9.52429 0.75 9.27905 0.75 9C0.75 8.72095 0.934986 8.47571 1.2033 8.39905L3.57512 7.72138C4.61327 7.42477 5.42477 6.61327 5.72138 5.57512L6.39905 3.2033C6.47571 2.93499 6.72095 2.75 7 2.75Z" fill="#96B6FF"/>
<path fill-rule="evenodd" clip-rule="evenodd" d="M14.5 0.25C14.7868 0.25 15.0368 0.445186 15.1063 0.723415L15.3221 1.5863C15.518 2.37005 16.13 2.982 16.9137 3.17794L17.7766 3.39366C18.0548 3.46322 18.25 3.71321 18.25 4C18.25 4.28679 18.0548 4.53678 17.7766 4.60634L16.9137 4.82206C16.13 5.018 15.518 5.62995 15.3221 6.4137L15.1063 7.27658C15.0368 7.55481 14.7868 7.75 14.5 7.75C14.2132 7.75 13.9632 7.55481 13.8937 7.27658L13.6779 6.4137C13.482 5.62995 12.87 5.018 12.0863 4.82206L11.2234 4.60634C10.9452 4.53678 10.75 4.28679 10.75 4C10.75 3.71321 10.9452 3.46322 11.2234 3.39366L12.0863 3.17794C12.87 2.982 13.482 2.37005 13.6779 1.5863L13.8937 0.723415C13.9632 0.445186 14.2132 0.25 14.5 0.25Z" fill="#96B6FF"/>
<path fill-rule="evenodd" clip-rule="evenodd" d="M13.25 11.5C13.519 11.5 13.7579 11.6721 13.8429 11.9274L14.1715 12.913C14.2959 13.2862 14.5888 13.5791 14.962 13.7035L15.9476 14.0321C16.2029 14.1171 16.375 14.356 16.375 14.625C16.375 14.894 16.2029 15.1329 15.9476 15.2179L14.962 15.5465C14.5888 15.6709 14.2959 15.9638 14.1715 16.337L13.8429 17.3226C13.7579 17.5779 13.519 17.75 13.25 17.75C12.981 17.75 12.7421 17.5779 12.6571 17.3226L12.3285 16.337C12.2041 15.9638 11.9112 15.6709 11.538 15.5465L10.5524 15.2179C10.2971 15.1329 10.125 14.894 10.125 14.625C10.125 14.356 10.2971 14.1171 10.5524 14.0321L11.538 13.7035C11.9112 13.5791 12.2041 13.2862 12.3285 12.913L12.6571 11.9274C12.7421 11.6721 12.981 11.5 13.25 11.5Z" fill="#96B6FF"/>
</svg>
