<svg width="20" height="20" viewBox="0 0 20 20" fill="none" xmlns="http://www.w3.org/2000/svg">
<path fill-rule="evenodd" clip-rule="evenodd" d="M19.6 9.99999C19.6 15.3019 15.3019 19.6 10 19.6C4.69807 19.6 0.400002 15.3019 0.400002 9.99999C0.400002 4.69806 4.69807 0.399994 10 0.399994C15.3019 0.399994 19.6 4.69806 19.6 9.99999ZM17.7962 10.2449C17.6668 14.4394 14.2259 17.8 10 17.8C5.69218 17.8 2.2 14.3078 2.2 9.99999C2.2 6.55187 4.43742 3.62632 7.53963 2.59597L6.31206 4.74422C5.92206 5.42673 6.03711 6.28582 6.59294 6.84165C7.12349 7.37219 7.934 7.50372 8.60509 7.16818L8.81477 7.06334C8.89808 7.02168 8.98995 6.99999 9.0831 6.99999H9.25817C9.48544 6.99999 9.69319 7.1284 9.79483 7.33167C9.87929 7.50058 9.87929 7.69941 9.79483 7.86832L9.76148 7.93502C9.68028 8.09741 9.51431 8.19999 9.33275 8.19999H8.73016C7.82337 8.19999 6.97658 8.65319 6.47358 9.40768L6.42101 9.48654C5.98994 10.1331 5.88154 10.9426 6.12729 11.6798C6.37841 12.4331 6.97345 13.0237 7.72405 13.2739C8.00796 13.3685 8.19981 13.635 8.19981 13.9298V15.1895C8.19981 15.9685 8.8313 16.6 9.61028 16.6C10.0388 16.6 10.444 16.4052 10.7117 16.0706L12.6453 13.6536C12.8748 13.3667 12.9998 13.0103 12.9998 12.643C12.9998 12.2639 13.1534 11.8949 13.4237 11.6246C13.9705 11.0778 14.0637 10.2141 13.6308 9.56485L13.0741 8.72974C13.0257 8.65709 12.9998 8.57174 12.9998 8.48444C12.9998 8.12003 13.4158 7.91201 13.7074 8.13066L14.1186 8.4391C14.4976 8.7233 15.0045 8.76847 15.4275 8.55695C15.6985 8.42147 16.0259 8.47464 16.2396 8.68826L17.7962 10.2449Z" fill="#989898"/>
</svg>
