<svg width="117" height="40" viewBox="0 0 117 40" fill="none" xmlns="http://www.w3.org/2000/svg">
<rect x="2" y="2" width="36" height="36" rx="18" fill="#2063FF"/>
<path d="M17.4294 18.6432L19.49 17.8808C19.8847 17.7421 20.1504 17.5285 20.2869 17.2397L21.9605 18.6836C22.2945 18.957 22.6152 19.0744 22.9226 19.0359L22.5127 21.2423C22.4406 21.6658 22.5033 22.0086 22.7006 22.2704L20.6171 23.0213C20.2225 23.1599 19.9644 23.3717 19.8429 23.6566L18.1466 22.2184C17.8278 21.9566 17.5148 21.8372 17.2074 21.8603L17.5944 19.654C17.6666 19.2419 17.6115 18.905 17.4294 18.6432ZM12.1183 25.5106L14.9759 24.8348C15.234 24.7733 15.4864 24.6674 15.733 24.5172L15.3801 25.6608C15.2321 26.146 15.2454 26.6754 15.4199 27.2491C15.5908 27.8344 15.8678 28.2888 16.2511 28.6123L18.4996 30.5414C18.879 30.8649 19.2528 30.9707 19.6209 30.8591C20.0005 30.7474 20.2642 30.447 20.4122 29.958L21.2604 27.099C21.3363 26.8372 21.3666 26.5696 21.3515 26.2962L22.1655 27.1567C22.5108 27.5302 22.9719 27.7844 23.5487 27.9191C24.1255 28.0694 24.6527 28.0578 25.1316 27.8845L27.8806 26.8737C28.3587 26.7004 28.6415 26.4193 28.7289 26.0304C28.8279 25.6454 28.7039 25.2662 28.3587 24.8927L26.3322 22.7209C26.1467 22.5207 25.938 22.359 25.7061 22.2357L26.8272 21.9527C27.3205 21.841 27.7709 21.5676 28.1768 21.1326C28.5942 20.6975 28.8448 20.2239 28.9278 19.7117L29.446 16.7718C29.545 16.2751 29.446 15.89 29.1499 15.6166C28.8689 15.3394 28.4818 15.2643 27.9886 15.3914L25.1316 16.0614C24.873 16.1269 24.6286 16.2404 24.3967 16.4022L24.7267 15.2412C24.8748 14.756 24.8641 14.2266 24.6928 13.6528C24.5296 13.0637 24.2527 12.6074 23.8618 12.2841L21.6133 10.3606C21.23 10.0373 20.8543 9.9313 20.4862 10.043C20.1067 10.1547 19.8429 10.4531 19.695 10.9382L18.8468 13.803C18.7746 14.0649 18.75 14.3325 18.7728 14.6059L17.9645 13.7453C17.6191 13.3718 17.1524 13.1158 16.5641 12.9771C15.9835 12.827 15.4598 12.8405 14.993 13.0176L12.2322 14.0225C11.7654 14.1996 11.4827 14.4807 11.384 14.8658C11.2967 15.2547 11.4257 15.6359 11.7711 16.0094L13.7805 18.1754C13.9627 18.3756 14.1771 18.545 14.4237 18.6836L13.2796 18.9435C12.79 19.0552 12.3423 19.3305 11.9362 19.7695C11.5302 20.2046 11.2777 20.6782 11.1791 21.1903L10.661 24.1245C10.5776 24.625 10.6763 25.012 10.9571 25.2853C11.2417 25.5587 11.6288 25.6339 12.1183 25.5106Z" fill="#FDFDFD"/>
<path d="M111.22 36.222V28.3118H111.124C110.926 28.7656 110.645 29.1907 110.28 29.587C109.916 29.9833 109.459 30.3029 108.909 30.5458C108.366 30.7887 107.723 30.9102 106.982 30.9102C105.895 30.9102 104.908 30.6289 104.019 30.0664C103.131 29.5039 102.421 28.6602 101.891 27.5352C101.36 26.4102 101.095 25.0135 101.095 23.3452C101.095 21.613 101.37 20.1875 101.919 19.0689C102.469 17.9503 103.188 17.1225 104.077 16.5856C104.972 16.0487 105.934 15.7802 106.963 15.7802C107.736 15.7802 108.398 15.9144 108.947 16.1829C109.497 16.445 109.951 16.7838 110.309 17.1992C110.667 17.6147 110.939 18.0462 111.124 18.4936H111.268V15.972H115.908V36.222H111.22ZM108.612 27.2571C109.181 27.2571 109.667 27.0973 110.069 26.7777C110.472 26.4517 110.782 25.9947 110.999 25.4066C111.217 24.8186 111.325 24.1282 111.325 23.3356C111.325 22.5302 111.217 21.8367 110.999 21.255C110.788 20.6733 110.478 20.2259 110.069 19.9127C109.667 19.5995 109.181 19.4429 108.612 19.4429C108.03 19.4429 107.538 19.6027 107.135 19.9223C106.733 20.2419 106.426 20.6925 106.215 21.2742C106.01 21.8558 105.908 22.543 105.908 23.3356C105.908 24.1282 106.014 24.8186 106.224 25.4066C106.435 25.9947 106.739 26.4517 107.135 26.7777C107.538 27.0973 108.03 27.2571 108.612 27.2571Z" fill="#272727"/>
<path d="M95.4962 30.6992V15.972H100.185V30.6992H95.4962ZM97.8452 14.2557C97.1869 14.2557 96.6212 14.0384 96.1482 13.6037C95.6751 13.1627 95.4386 12.6321 95.4386 12.0121C95.4386 11.3985 95.6751 10.8743 96.1482 10.4397C96.6212 9.9986 97.1869 9.77808 97.8452 9.77808C98.51 9.77808 99.0757 9.9986 99.5423 10.4397C100.015 10.8743 100.252 11.3985 100.252 12.0121C100.252 12.6321 100.015 13.1627 99.5423 13.6037C99.0757 14.0384 98.51 14.2557 97.8452 14.2557Z" fill="#272727"/>
<path d="M94.0779 11.0629V30.6992H89.3893V11.0629H94.0779Z" fill="#272727"/>
<path d="M81.571 30.9773C80.0305 30.9773 78.701 30.6737 77.5824 30.0664C76.4702 29.4528 75.6136 28.5803 75.0128 27.4489C74.4183 26.3111 74.1211 24.9592 74.1211 23.3931C74.1211 21.8718 74.4215 20.5423 75.0224 19.4045C75.6232 18.2603 76.4702 17.3718 77.5632 16.739C78.6562 16.0998 79.9442 15.7802 81.4272 15.7802C82.4755 15.7802 83.4343 15.9432 84.3036 16.2692C85.1729 16.5952 85.924 17.0778 86.5568 17.717C87.1896 18.3562 87.6818 19.1456 88.0334 20.0853C88.3849 21.0185 88.5607 22.0892 88.5607 23.2973V24.467H75.7606V21.744H84.1981C84.1917 21.2454 84.0735 20.8012 83.8434 20.4112C83.6133 20.0213 83.2969 19.7177 82.8942 19.5004C82.4979 19.2767 82.0408 19.1648 81.5231 19.1648C80.9989 19.1648 80.5291 19.283 80.1136 19.5196C79.6981 19.7497 79.3689 20.0661 79.126 20.4688C78.8832 20.8651 78.7553 21.3157 78.7425 21.8207V24.5916C78.7425 25.1925 78.8608 25.7198 79.0973 26.1737C79.3338 26.6211 79.6694 26.9695 80.104 27.2188C80.5387 27.4681 81.0565 27.5927 81.6573 27.5927C82.0728 27.5927 82.4499 27.5352 82.7887 27.4201C83.1275 27.3051 83.4183 27.1357 83.6612 26.912C83.9041 26.6882 84.0863 26.4134 84.2077 26.0874L88.5128 26.212C88.3338 27.1772 87.9407 28.0178 87.3334 28.7337C86.7326 29.4432 85.9432 29.9961 84.9652 30.3924C83.9872 30.7823 82.8558 30.9773 81.571 30.9773Z" fill="#272727"/>
<path d="M74.0187 15.972V19.4237H64.7279V15.972H74.0187ZM66.6743 12.4436H71.3628V26.0682C71.3628 26.3558 71.4076 26.5892 71.4971 26.7681C71.593 26.9407 71.7304 27.0654 71.9094 27.1421C72.0883 27.2124 72.3025 27.2475 72.5518 27.2475C72.7307 27.2475 72.9193 27.2316 73.1175 27.1996C73.322 27.1612 73.4754 27.1293 73.5777 27.1037L74.2872 30.4883C74.0635 30.5522 73.7471 30.6321 73.338 30.728C72.9353 30.8239 72.4527 30.8846 71.8902 30.9102C70.7908 30.9613 69.8479 30.8335 69.0617 30.5267C68.2819 30.2134 67.6842 29.7277 67.2687 29.0693C66.8597 28.4109 66.6615 27.5831 66.6743 26.586V12.4436Z" fill="#272727"/>
<path d="M54.8482 22.3001V30.6992H50.1596V15.972H54.618V18.6758H54.781C55.107 17.7745 55.6631 17.0682 56.4494 16.5568C57.2356 16.0391 58.172 15.7802 59.2587 15.7802C60.2942 15.7802 61.1923 16.0135 61.9529 16.4801C62.72 16.9404 63.3144 17.586 63.7363 18.4169C64.1646 19.2415 64.3755 20.2067 64.3691 21.3125V30.6992H59.6805V22.233C59.6869 21.4148 59.4792 20.7756 59.0573 20.3154C58.6418 19.8551 58.0634 19.625 57.3219 19.625C56.8297 19.625 56.395 19.7337 56.0179 19.951C55.6472 20.162 55.3595 20.4656 55.155 20.8619C54.9568 21.2582 54.8545 21.7376 54.8482 22.3001Z" fill="#272727"/>
<path d="M48.7461 11.0629V30.6992H44V11.0629H48.7461Z" fill="#272727"/>
</svg>
