<svg width="18" height="18" viewBox="0 0 18 18" fill="none" xmlns="http://www.w3.org/2000/svg">
<path d="M1.39849 1.00359C1.17787 0.9395 0.939881 1.00161 0.77872 1.16534C0.61756 1.32906 0.559212 1.568 0.626774 1.78758L2.65367 8.375H9.75012C10.0953 8.375 10.3751 8.65482 10.3751 9C10.3751 9.34518 10.0953 9.625 9.75012 9.625H2.65368L0.626851 16.2122C0.559288 16.4318 0.617637 16.6707 0.778799 16.8344C0.939961 16.9982 1.17795 17.0603 1.39857 16.9962C6.98073 15.3745 12.1646 12.8178 16.7695 9.50726C16.9329 9.38983 17.0297 9.20096 17.0297 8.99979C17.0297 8.79862 16.9328 8.60975 16.7695 8.49233C12.1646 5.18181 6.98067 2.62517 1.39849 1.00359Z" fill="#FDFDFD"/>
</svg>
